<svg xmlns="http://www.w3.org/2000/svg" version="1.1" xmlns:xlink="http://www.w3.org/1999/xlink" xmlns:svgjs="http://svgjs.dev/svgjs" width="1000" height="1000" viewBox="0 0 1000 1000"><rect width="1000" height="1000" fill="#000000"></rect><g transform="matrix(0.7,0,0,0.7,149.57575757575756,318.03558788630096)"><svg viewBox="0 0 396 206" data-background-color="#ffffff" preserveAspectRatio="xMidYMid meet" height="520" width="1000" xmlns="http://www.w3.org/2000/svg" xmlns:xlink="http://www.w3.org/1999/xlink"><g id="tight-bounds" transform="matrix(1,0,0,1,0.2400000000000091,-0.02014039719230709)"><svg viewBox="0 0 395.52 206.04007848966057" height="206.04007848966057" width="395.52"><g><svg viewBox="0 0 782.0282038966791 407.38560000000007" height="206.04007848966057" width="395.52"><g transform="matrix(1,0,0,1,452.42820389667907,80.09280000000004)"><svg viewBox="0 0 329.6000000000001 247.2" height="247.2" width="329.6000000000001"><g><svg viewBox="0 0 329.6000000000001 247.2" height="247.2" width="329.6000000000001"><g><svg viewBox="0 0 329.6000000000001 247.2" height="247.2" width="329.6000000000001"><g transform="matrix(1,0,0,1,0,0)"><svg width="329.6000000000001" viewBox="84.5 -37.35 162.59999999999997 118.94999999999999" height="247.2" data-palette-color="#fe654f"><svg></svg><svg></svg><svg></svg><g class="undefined-text-0" data-fill-palette-color="primary" id="text-0"><path transform="translate(90,0)" d="M14.35 0.3v0c-0.967 0-1.957-0.023-2.97-0.07-1.02-0.053-2.053-0.14-3.1-0.26-1.053-0.113-2.047-0.247-2.98-0.4-0.933-0.147-1.783-0.32-2.55-0.52v0-5.85c1 0.1 2.133 0.183 3.4 0.25 1.267 0.067 2.583 0.117 3.95 0.15 1.367 0.033 2.667 0.05 3.9 0.05v0c1.267 0 2.36-0.11 3.28-0.33 0.913-0.213 1.62-0.597 2.12-1.15 0.5-0.547 0.75-1.303 0.75-2.27v0-1.35c0-1.1-0.323-1.943-0.97-2.53-0.653-0.58-1.58-0.87-2.78-0.87v0h-3.15c-3.533 0-6.24-0.777-8.12-2.33-1.887-1.547-2.83-4.187-2.83-7.92v0-1.8c0-3.6 1.033-6.233 3.1-7.9 2.067-1.667 5.017-2.5 8.85-2.5v0c1.367 0 2.723 0.067 4.07 0.2 1.353 0.133 2.657 0.29 3.91 0.47 1.247 0.187 2.32 0.38 3.22 0.58v0 5.85c-1.533-0.1-3.24-0.2-5.12-0.3-1.887-0.1-3.63-0.15-5.23-0.15v0c-1.133 0-2.14 0.107-3.02 0.32-0.887 0.22-1.563 0.63-2.03 1.23-0.467 0.6-0.7 1.45-0.7 2.55v0 1c0 1.3 0.367 2.233 1.1 2.8 0.733 0.567 1.817 0.85 3.25 0.85v0h3.65c2.233 0 4.077 0.407 5.53 1.22 1.447 0.82 2.53 1.947 3.25 3.38 0.713 1.433 1.07 3.067 1.07 4.9v0 2.1c0 2.9-0.54 5.117-1.62 6.65-1.087 1.533-2.587 2.573-4.5 3.12-1.92 0.553-4.163 0.83-6.73 0.83zM40.05 0h-7.4v-37h7.4v15.4h13.95v-15.4h7.45v37h-7.45v-14.95h-13.95zM82.1 0.3v0c-2.533 0-4.75-0.243-6.65-0.73-1.9-0.48-3.493-1.38-4.78-2.7-1.28-1.313-2.237-3.203-2.87-5.67-0.633-2.467-0.95-5.683-0.95-9.65v0c0-3.967 0.323-7.193 0.97-9.68 0.653-2.48 1.613-4.387 2.88-5.72 1.267-1.333 2.85-2.25 4.75-2.75 1.9-0.5 4.117-0.75 6.65-0.75v0c2.533 0 4.75 0.25 6.65 0.75 1.9 0.5 3.483 1.417 4.75 2.75 1.267 1.333 2.217 3.24 2.85 5.72 0.633 2.487 0.95 5.713 0.95 9.68v0c0 3.967-0.317 7.183-0.95 9.65-0.633 2.467-1.583 4.357-2.85 5.67-1.267 1.32-2.85 2.22-4.75 2.7-1.9 0.487-4.117 0.73-6.65 0.73zM82.1-6.35v0c1.5 0 2.75-0.167 3.75-0.5 1-0.333 1.79-0.927 2.37-1.78 0.587-0.847 1.013-2.063 1.28-3.65 0.267-1.58 0.4-3.637 0.4-6.17v0c0-2.667-0.133-4.8-0.4-6.4-0.267-1.6-0.693-2.827-1.28-3.68-0.58-0.847-1.37-1.42-2.37-1.72-1-0.3-2.25-0.45-3.75-0.45v0c-1.433 0-2.65 0.15-3.65 0.45-1 0.3-1.81 0.873-2.43 1.72-0.613 0.853-1.063 2.08-1.35 3.68-0.28 1.6-0.42 3.733-0.42 6.4v0c0 2.533 0.127 4.59 0.38 6.17 0.247 1.587 0.67 2.803 1.27 3.65 0.6 0.853 1.407 1.447 2.42 1.78 1.02 0.333 2.28 0.5 3.78 0.5zM116.05 0h-7.55l-8.85-37h7.65l5.95 26.1 6.95-26.1h6.8l6.9 26.1 5.95-26.1h7.65l-8.85 37h-7.55l-7.5-26.1z" fill="#ffffff" fill-rule="nonzero" stroke="none" stroke-width="1" stroke-linecap="butt" stroke-linejoin="miter" stroke-miterlimit="10" stroke-dasharray="" stroke-dashoffset="0" font-family="none" font-weight="none" font-size="none" text-anchor="none" style="mix-blend-mode: normal" data-fill-palette-color="primary" opacity="1"></path><path transform="translate(132.43,40.65)" d="M17.5 0.3v0c-2.533 0-4.75-0.243-6.65-0.73-1.9-0.48-3.49-1.38-4.77-2.7-1.287-1.313-2.247-3.203-2.88-5.67-0.633-2.467-0.95-5.683-0.95-9.65v0c0-3.967 0.327-7.193 0.98-9.68 0.647-2.48 1.603-4.387 2.87-5.72 1.267-1.333 2.85-2.25 4.75-2.75 1.9-0.5 4.117-0.75 6.65-0.75v0c2.533 0 4.75 0.25 6.65 0.75 1.9 0.5 3.483 1.417 4.75 2.75 1.267 1.333 2.217 3.24 2.85 5.72 0.633 2.487 0.95 5.713 0.95 9.68v0c0 3.967-0.317 7.183-0.95 9.65-0.633 2.467-1.583 4.357-2.85 5.67-1.267 1.32-2.85 2.22-4.75 2.7-1.9 0.487-4.117 0.73-6.65 0.73zM17.5-6.35v0c1.5 0 2.75-0.167 3.75-0.5 1-0.333 1.793-0.927 2.38-1.78 0.58-0.847 1.003-2.063 1.27-3.65 0.267-1.58 0.4-3.637 0.4-6.17v0c0-2.667-0.133-4.8-0.4-6.4-0.267-1.6-0.69-2.827-1.27-3.68-0.587-0.847-1.38-1.42-2.38-1.72-1-0.3-2.25-0.45-3.75-0.45v0c-1.433 0-2.65 0.15-3.65 0.45-1 0.3-1.807 0.873-2.42 1.72-0.62 0.853-1.07 2.08-1.35 3.68-0.287 1.6-0.43 3.733-0.43 6.4v0c0 2.533 0.127 4.59 0.38 6.17 0.247 1.587 0.67 2.803 1.27 3.65 0.6 0.853 1.41 1.447 2.43 1.78 1.013 0.333 2.27 0.5 3.77 0.5zM45.55 0h-7.4v-28.55c0-1.633 0.25-3 0.75-4.1 0.5-1.1 1.167-1.967 2-2.6 0.833-0.633 1.75-1.083 2.75-1.35 1-0.267 1.983-0.4 2.95-0.4v0c1.2 0 2.693 0.007 4.48 0.02 1.78 0.02 3.68 0.08 5.7 0.18 2.013 0.1 3.953 0.25 5.82 0.45v0 6.2h-13.95c-1.033 0-1.807 0.273-2.32 0.82-0.52 0.553-0.78 1.28-0.78 2.18v0 6.3l14.65 0.4v5.85l-14.65 0.4z" fill="#ffffff" fill-rule="nonzero" stroke="none" stroke-width="1" stroke-linecap="butt" stroke-linejoin="miter" stroke-miterlimit="10" stroke-dasharray="" stroke-dashoffset="0" font-family="none" font-weight="none" font-size="none" text-anchor="none" style="mix-blend-mode: normal" data-fill-palette-color="primary" opacity="1"></path><path transform="translate(81.3,81.3)" d="M10.6 0h-7.4v-37h7.4v15.4h13.95v-15.4h7.45v37h-7.45v-14.95h-13.95zM43.6 0h-7.6l11.6-37h9.35l11.6 37h-7.7l-2.35-7.75h-12.6zM52.2-30.65l-4.55 16.25h9.1zM80.3 0h-7.45v-37h5.95l15.5 24.4v-24.4h7.4v37h-5.95l-15.45-24.4zM123.45 0h-15.65v-37h15.65c2.5 0 4.583 0.44 6.25 1.32 1.667 0.887 2.993 2.153 3.98 3.8 0.98 1.653 1.67 3.613 2.07 5.88 0.4 2.267 0.6 4.767 0.6 7.5v0c0 4.167-0.473 7.617-1.42 10.35-0.953 2.733-2.38 4.777-4.28 6.13-1.9 1.347-4.3 2.02-7.2 2.02zM115.2-30.35v23.7h7.5c1.533 0 2.75-0.443 3.65-1.33 0.9-0.88 1.56-2.203 1.98-3.97 0.413-1.767 0.62-3.95 0.62-6.55v0c0-2.4-0.133-4.377-0.4-5.93-0.267-1.547-0.657-2.753-1.17-3.62-0.52-0.867-1.17-1.467-1.95-1.8-0.787-0.333-1.697-0.5-2.73-0.5v0zM152.95 0.3v0c-0.967 0-1.957-0.023-2.97-0.07-1.02-0.053-2.053-0.14-3.1-0.26-1.053-0.113-2.047-0.247-2.98-0.4-0.933-0.147-1.783-0.32-2.55-0.52v0-5.85c1 0.1 2.133 0.183 3.4 0.25 1.267 0.067 2.583 0.117 3.95 0.15 1.367 0.033 2.667 0.05 3.9 0.05v0c1.267 0 2.36-0.11 3.28-0.33 0.913-0.213 1.62-0.597 2.12-1.15 0.5-0.547 0.75-1.303 0.75-2.27v0-1.35c0-1.1-0.323-1.943-0.97-2.53-0.653-0.58-1.58-0.87-2.78-0.87v0h-3.15c-3.533 0-6.24-0.777-8.12-2.33-1.887-1.547-2.83-4.187-2.83-7.92v0-1.8c0-3.6 1.033-6.233 3.1-7.9 2.067-1.667 5.017-2.5 8.85-2.5v0c1.367 0 2.727 0.067 4.08 0.2 1.347 0.133 2.647 0.29 3.9 0.47 1.247 0.187 2.32 0.38 3.22 0.58v0 5.85c-1.533-0.1-3.24-0.2-5.12-0.3-1.887-0.1-3.63-0.15-5.23-0.15v0c-1.133 0-2.14 0.107-3.02 0.32-0.887 0.22-1.563 0.63-2.03 1.23-0.467 0.6-0.7 1.45-0.7 2.55v0 1c0 1.3 0.367 2.233 1.1 2.8 0.733 0.567 1.817 0.85 3.25 0.85v0h3.65c2.233 0 4.077 0.407 5.53 1.22 1.447 0.82 2.53 1.947 3.25 3.38 0.713 1.433 1.07 3.067 1.07 4.9v0 2.1c0 2.9-0.54 5.117-1.62 6.65-1.087 1.533-2.587 2.573-4.5 3.12-1.92 0.553-4.163 0.83-6.73 0.83z" fill="#ffffff" fill-rule="nonzero" stroke="none" stroke-width="1" stroke-linecap="butt" stroke-linejoin="miter" stroke-miterlimit="10" stroke-dasharray="" stroke-dashoffset="0" font-family="none" font-weight="none" font-size="none" text-anchor="none" style="mix-blend-mode: normal" data-fill-palette-color="primary" opacity="1"></path></g></svg></g></svg></g></svg></g></svg></g><g><svg viewBox="0 0 407.38560000000007 407.38560000000007" height="407.38560000000007" width="407.38560000000007"><g><svg viewBox="0 0 407.38560000000007 407.38560000000007" height="407.38560000000007" width="407.38560000000007"><g transform="matrix(1,0,0,1,131.90772338626422,107.67109322741656)"><svg viewBox="0 0 143.57015322747162 192.04341354516694" height="192.04341354516694" width="143.57015322747162"><g><svg xmlns="http://www.w3.org/2000/svg" xmlns:xlink="http://www.w3.org/1999/xlink" version="1.1" x="0" y="0" viewBox="12.809000000000001 0.018377230416422845 74.4643800059734 99.60561720104985" enable-background="new 0 0 100 100" xml:space="preserve" height="192.04341354516694" width="143.57015322747162" class="icon-kj-0" data-fill-palette-color="accent" id="kj-0"><path d="M64.9 98.083c0.297-9.978 0.64-17.903 1.018-20.204 1.274-7.743 4.507-12.247 5.488-21.749 0.977-9.501 2.741-11.458 5.384-16.748 2.646-5.29 10.385-10.48 10.483-14.301 0.035-1.469-2.352-2.645-5.39 0-3.035 2.643-13.419 15.182-14.888 13.32-1.469-1.858 2.742-10.872 4.802-18.708 2.057-7.838 3.33-13.322 0.193-14.105-3.135-0.784-4.995 4.801-8.227 17.042-3.232 12.245-3.724 12.245-5.389 11.167-1.665-1.076-0.02-18.739-0.02-18.739 0.244-7.139 1.229-15.51-2.707-15.019-3.942 0.493-5.171 10.095-5.171 15.512 0 5.418 0.392 16.884-1.332 16.884-1.725 0-3.101-2.851-4.331-14.915C43.583 5.457 42.352 5.446 41.121 5.457c-1.879 0.017-3.938 1.97-3.938 8.864 0 6.893 2.708 18.712 2.954 26.345 0.248 7.632-2.461 11.571-5.908 12.064-3.448 0.493-7.88-5.665-14.034-8.126-6.156-2.461-7.386 4.924-7.386 4.924s4.677 0.985 7.632 3.449c2.956 2.46 6.155 9.108 6.155 9.108 3.202 2.953 15.512 13.049 15.512 13.049s0.492 11.08-0.248 20.432c-0.074 0.942-0.206 2.068-0.366 3.282C50.533 99.442 57.666 100.568 64.9 98.083z" fill="#ffffff" data-fill-palette-color="accent"></path></svg></g></svg></g><path d="M63.499 151.346V151.346C63.253 152.405 62.973 153.485 62.66 154.586 62.347 155.687 61.994 156.799 61.602 157.923 61.202 159.044 60.801 160.1 60.399 161.09 59.998 162.072 59.591 162.959 59.178 163.749V163.749L52.766 162.26C53.13 161.187 53.507 159.966 53.899 158.596 54.301 157.22 54.691 155.788 55.069 154.301 55.455 152.815 55.806 151.394 56.121 150.039V150.039C56.442 148.653 56.599 147.43 56.591 146.369 56.591 145.31 56.355 144.435 55.884 143.743 55.403 143.057 54.633 142.591 53.574 142.345V142.345L52.091 142C50.884 141.72 49.879 141.86 49.076 142.42 48.271 142.988 47.715 143.93 47.41 145.246V145.246L46.61 148.692C45.709 152.57 44.17 155.344 41.994 157.013 39.817 158.682 36.68 159.041 32.585 158.09V158.09L30.611 157.632C26.663 156.715 24.041 154.912 22.745 152.223 21.441 149.532 21.276 146.088 22.251 141.891V141.891C22.6 140.388 23.02 138.914 23.512 137.469 24.004 136.023 24.506 134.638 25.019 133.313 25.539 131.989 26.024 130.858 26.471 129.92V129.92L32.884 131.409C32.384 133.066 31.84 134.913 31.252 136.952 30.664 138.99 30.165 140.889 29.757 142.649V142.649C29.469 143.887 29.333 145.021 29.349 146.05 29.358 147.07 29.634 147.914 30.176 148.581 30.713 149.239 31.585 149.709 32.792 149.989V149.989L33.89 150.244C35.315 150.575 36.432 150.412 37.241 149.754 38.042 149.095 38.626 147.979 38.991 146.406V146.406L39.919 142.411C40.488 139.958 41.405 138.042 42.67 136.661 43.934 135.28 45.444 134.379 47.2 133.958 48.955 133.537 50.838 133.56 52.847 134.026V134.026L55.148 134.561C58.333 135.3 60.624 136.46 62.021 138.04 63.429 139.615 64.192 141.523 64.311 143.767 64.422 146.009 64.151 148.535 63.499 151.346ZM71.587 127.283L67.973 134.793 30.448 116.73 34.063 109.221 49.686 116.741 56.494 102.598 40.871 95.077 44.506 87.525 82.031 105.588 78.395 113.14 63.236 105.843 56.428 119.987ZM95.214 91.23V91.23C93.372 93.411 91.553 95.144 89.755 96.43 87.962 97.71 86.034 98.425 83.971 98.576 81.906 98.716 79.582 98.166 76.999 96.925 74.421 95.679 71.425 93.614 68.011 90.73V90.73C64.603 87.852 62.068 85.229 60.405 82.862 58.743 80.506 57.799 78.296 57.574 76.233 57.345 74.176 57.704 72.152 58.654 70.16 59.603 68.157 60.998 66.066 62.84 63.886V63.886C64.676 61.711 66.502 59.989 68.319 58.719 70.123 57.449 72.062 56.753 74.133 56.629 76.199 56.512 78.528 57.082 81.118 58.338 83.715 59.6 86.717 61.671 90.125 64.549V64.549C93.539 67.432 96.076 70.041 97.736 72.375 99.396 74.708 100.335 76.898 100.553 78.945 100.759 80.992 100.381 83.007 99.419 84.988 98.452 86.975 97.05 89.056 95.214 91.23ZM89.498 86.402V86.402C90.586 85.114 91.35 83.917 91.791 82.814 92.226 81.716 92.289 80.608 91.979 79.488 91.68 78.367 90.945 77.119 89.774 75.742 88.608 74.36 86.935 72.748 84.755 70.907V70.907C82.465 68.972 80.535 67.541 78.964 66.612 77.393 65.672 76.03 65.149 74.876 65.042 73.72 64.924 72.652 65.184 71.674 65.822 70.69 66.466 69.654 67.433 68.565 68.722V68.722C67.523 69.955 66.767 71.111 66.296 72.189 65.825 73.266 65.732 74.381 66.016 75.531 66.299 76.67 67.028 77.945 68.201 79.355 69.369 80.76 71.098 82.429 73.388 84.364V84.364C75.569 86.205 77.43 87.594 78.972 88.531 80.515 89.467 81.869 89.983 83.034 90.078 84.2 90.184 85.296 89.921 86.32 89.291 87.345 88.66 88.404 87.697 89.498 86.402ZM120.358 69.607L113.191 74.18 82.402 44.423 89.66 39.793 111.102 60.962 101.903 31.983 108.352 27.868 130.694 48.463 120.544 20.09 127.803 15.46 141.8 55.928 134.643 60.495 111.725 40.267ZM178.756 44.323V44.323C175.954 44.862 173.449 45.067 171.243 44.937 169.044 44.807 167.095 44.151 165.395 42.972 163.701 41.784 162.239 39.895 161.009 37.307 159.786 34.717 158.753 31.228 157.91 26.84V26.84C157.068 22.459 156.744 18.826 156.938 15.939 157.126 13.062 157.78 10.75 158.902 9.004 160.015 7.26 161.567 5.911 163.558 4.959 165.555 3.997 167.954 3.247 170.757 2.708V2.708C173.552 2.171 176.055 1.979 178.266 2.132 180.467 2.278 182.413 2.955 184.102 4.16 185.783 5.368 187.236 7.274 188.461 9.879 189.688 12.493 190.723 15.99 191.565 20.37V20.37C192.408 24.759 192.743 28.382 192.568 31.241 192.392 34.099 191.747 36.393 190.63 38.121 189.504 39.844 187.944 41.173 185.951 42.11 183.949 43.048 181.551 43.786 178.757 44.323ZM177.344 36.975V36.975C179 36.657 180.347 36.207 181.383 35.625 182.411 35.045 183.156 34.222 183.619 33.156 184.091 32.097 184.304 30.664 184.258 28.857 184.22 27.049 183.931 24.744 183.392 21.941V21.941C182.826 18.997 182.225 16.671 181.587 14.962 180.955 13.243 180.224 11.98 179.393 11.171 178.568 10.353 177.574 9.884 176.412 9.766 175.242 9.649 173.828 9.75 172.172 10.068V10.068C170.586 10.373 169.271 10.796 168.228 11.339 167.184 11.881 166.411 12.689 165.91 13.763 165.414 14.827 165.18 16.276 165.207 18.111 165.232 19.937 165.528 22.323 166.094 25.266V25.266C166.633 28.069 167.208 30.319 167.819 32.017 168.43 33.715 169.159 34.967 170.006 35.773 170.847 36.588 171.864 37.072 173.057 37.226 174.251 37.379 175.68 37.295 177.344 36.975ZM206.542 41.588L198.213 41.301 199.318 9.184C199.381 7.346 199.717 5.818 200.327 4.599 200.929 3.388 201.709 2.439 202.669 1.752 203.636 1.073 204.688 0.605 205.825 0.349 206.954 0.083 208.061-0.03 209.148 0.007V0.007C210.498 0.053 212.176 0.123 214.18 0.216 216.193 0.301 218.328 0.439 220.585 0.628 222.85 0.818 225.03 1.061 227.123 1.357V1.357L226.883 8.332 211.196 7.792C210.029 7.752 209.148 8.034 208.551 8.637 207.947 9.232 207.627 10.037 207.592 11.052V11.052L207.349 18.135 223.811 19.157 223.585 25.736 207.091 25.613ZM248.188 48.861L240.346 46.04 254.441 6.852 262.283 9.673 256.414 25.989 271.184 31.301 277.053 14.985 284.94 17.822 270.845 57.01 262.958 54.173 268.652 38.342 253.882 33.03ZM278.121 62.623L271.09 57.758 305.524 30.94 314.172 36.924 301.215 78.602 294.086 73.669 296.877 64.999 285.211 56.927ZM305.708 39.758L291.092 51.883 299.514 57.71ZM307.457 86.099L301.82 79.895 332.64 51.887 337.14 56.839 328.552 88.219 348.874 69.751 354.479 75.919 323.659 103.927 319.151 98.966 327.779 67.631ZM332.989 122.52L324.68 106.988 361.401 87.343 369.71 102.875C371.037 105.356 371.704 107.661 371.709 109.789 371.721 111.913 371.17 113.898 370.055 115.746 368.933 117.597 367.355 119.326 365.321 120.93 363.284 122.528 360.908 124.053 358.194 125.505V125.505C354.064 127.714 350.389 129.073 347.17 129.58 343.954 130.095 341.172 129.766 338.822 128.593 336.476 127.427 334.531 125.403 332.989 122.52ZM358.734 98.221L335.209 110.807 339.191 118.25C340.005 119.773 341.091 120.743 342.447 121.159 343.8 121.587 345.465 121.539 347.443 121.016 349.41 120.49 351.683 119.536 354.263 118.156V118.156C356.646 116.882 358.539 115.701 359.943 114.614 361.336 113.524 362.327 112.496 362.916 111.528 363.5 110.553 363.751 109.59 363.668 108.637 363.58 107.677 363.263 106.687 362.716 105.664V105.664ZM343.001 150.326V150.326C342.716 149.277 342.45 148.194 342.204 147.076 341.958 145.958 341.742 144.811 341.555 143.636 341.376 142.459 341.229 141.339 341.114 140.277 341.001 139.222 340.939 138.249 340.929 137.357V137.357L347.282 135.63C347.469 136.747 347.715 138.002 348.019 139.394 348.317 140.795 348.652 142.241 349.024 143.731 349.388 145.222 349.753 146.639 350.117 147.981V147.981C350.491 149.355 350.932 150.506 351.442 151.436 351.944 152.368 352.566 153.028 353.309 153.414 354.058 153.79 354.956 153.836 356.006 153.551V153.551L357.475 153.151C358.671 152.826 359.49 152.227 359.931 151.353 360.371 150.471 360.414 149.378 360.059 148.075V148.075L359.131 144.661C358.087 140.819 358.128 137.648 359.254 135.146 360.379 132.645 362.971 130.843 367.029 129.74V129.74L368.984 129.208C372.896 128.145 376.059 128.49 378.474 130.244 380.897 131.996 382.674 134.951 383.804 139.109V139.109C384.209 140.598 384.538 142.095 384.789 143.601 385.041 145.106 385.255 146.564 385.432 147.974 385.6 149.387 385.71 150.612 385.76 151.65V151.65L379.407 153.377C379.062 151.682 378.666 149.797 378.218 147.723 377.77 145.65 377.31 143.741 376.836 141.998V141.998C376.502 140.771 376.085 139.708 375.584 138.809 375.092 137.915 374.449 137.303 373.655 136.972 372.871 136.647 371.881 136.647 370.685 136.972V136.972L369.597 137.268C368.186 137.652 367.279 138.325 366.878 139.287 366.485 140.247 366.5 141.506 366.923 143.065V143.065L367.999 147.022C368.66 149.452 368.761 151.574 368.301 153.389 367.842 155.204 366.939 156.713 365.593 157.916 364.246 159.119 362.578 159.99 360.587 160.532V160.532L358.308 161.151C355.153 162.009 352.586 162.073 350.606 161.344 348.621 160.624 347.045 159.305 345.877 157.386 344.716 155.464 343.758 153.111 343.001 150.326ZM33.408 274.127V274.127C33.162 273.068 32.937 271.975 32.733 270.849 32.529 269.723 32.356 268.569 32.213 267.387 32.077 266.204 31.972 265.08 31.897 264.014 31.824 262.956 31.798 261.981 31.821 261.089V261.089L38.234 259.6C38.38 260.723 38.578 261.986 38.83 263.389 39.076 264.801 39.357 266.258 39.673 267.76 39.981 269.264 40.293 270.694 40.607 272.049V272.049C40.929 273.435 41.328 274.602 41.802 275.55 42.269 276.501 42.867 277.183 43.595 277.596 44.329 278 45.225 278.079 46.284 277.833V277.833L47.768 277.489C48.975 277.209 49.815 276.64 50.289 275.783 50.761 274.919 50.844 273.828 50.539 272.512V272.512L49.739 269.066C48.838 265.189 48.997 262.021 50.215 259.563 51.434 257.105 54.091 255.401 58.187 254.449V254.449L60.161 253.991C64.109 253.074 67.257 253.537 69.605 255.38 71.961 257.221 73.627 260.24 74.602 264.437V264.437C74.951 265.94 75.223 267.449 75.419 268.963 75.614 270.476 75.774 271.941 75.897 273.357 76.013 274.775 76.077 276.003 76.089 277.043V277.043L69.676 278.532C69.394 276.825 69.069 274.926 68.698 272.838 68.328 270.749 67.939 268.824 67.53 267.064V267.064C67.242 265.826 66.865 264.749 66.398 263.831 65.94 262.92 65.32 262.284 64.539 261.924 63.767 261.57 62.778 261.533 61.571 261.813V261.813L60.473 262.068C59.048 262.399 58.117 263.038 57.68 263.985 57.252 264.929 57.22 266.188 57.585 267.761V267.761L58.513 271.756C59.082 274.209 59.104 276.334 58.577 278.13 58.051 279.927 57.092 281.401 55.702 282.553 54.312 283.704 52.612 284.513 50.603 284.98V284.98L48.302 285.514C45.117 286.254 42.549 286.223 40.598 285.42 38.641 284.627 37.115 283.25 36.019 281.288 34.932 279.325 34.061 276.938 33.408 274.127ZM44.358 304.309L40.744 296.799 78.268 278.737 81.883 286.246 66.259 293.766 73.067 307.91 88.691 300.389 92.326 307.942 54.802 326.005 51.166 318.452 66.325 311.155 59.517 297.012ZM71.615 347.188V347.188C69.773 345.008 68.369 342.924 67.402 340.936 66.44 338.955 66.057 336.934 66.253 334.875 66.46 332.816 67.391 330.617 69.046 328.277 70.706 325.943 73.243 323.335 76.657 320.451V320.451C80.065 317.573 83.075 315.512 85.687 314.268 88.288 313.024 90.624 312.463 92.696 312.587 94.762 312.704 96.698 313.397 98.502 314.667 100.319 315.937 102.147 317.663 103.989 319.843V319.843C105.825 322.017 107.218 324.106 108.167 326.109 109.117 328.1 109.479 330.128 109.254 332.191 109.024 334.247 108.073 336.448 106.401 338.792 104.723 341.141 102.179 343.754 98.772 346.633V346.633C95.358 349.516 92.362 351.581 89.783 352.828 87.205 354.074 84.889 354.634 82.835 354.506 80.781 354.367 78.859 353.658 77.066 352.378 75.268 351.092 73.451 349.362 71.615 347.188ZM77.331 342.36V342.36C78.42 343.648 79.471 344.602 80.485 345.22 81.495 345.833 82.577 346.08 83.733 345.962 84.888 345.855 86.242 345.339 87.794 344.415 89.352 343.497 91.221 342.117 93.402 340.275V340.275C95.692 338.341 97.426 336.677 98.604 335.285 99.793 333.893 100.537 332.636 100.836 331.516 101.146 330.396 101.068 329.3 100.602 328.229 100.132 327.151 99.352 325.968 98.263 324.679V324.679C97.221 323.445 96.209 322.506 95.225 321.862 94.241 321.217 93.158 320.939 91.976 321.027 90.806 321.115 89.428 321.62 87.841 322.542 86.261 323.458 84.325 324.884 82.035 326.818V326.818C79.855 328.66 78.174 330.262 76.993 331.627 75.811 332.991 75.076 334.239 74.788 335.372 74.489 336.504 74.564 337.628 75.015 338.744 75.465 339.86 76.238 341.065 77.331 342.36ZM104.106 374.354L96.938 369.782 110.946 329.319 118.204 333.95 108.044 362.316 130.446 341.76 136.896 345.875 127.636 374.815 149.088 353.653 156.346 358.283 125.547 388.033 118.39 383.467 127.074 354.159ZM172.925 404.497V404.497C170.123 403.959 167.721 403.22 165.719 402.282 163.726 401.345 162.158 400.014 161.017 398.288 159.884 396.557 159.226 394.261 159.044 391.401 158.869 388.542 159.203 384.919 160.046 380.531V380.531C160.888 376.15 161.935 372.655 163.185 370.047 164.426 367.444 165.891 365.54 167.58 364.334 169.261 363.127 171.203 362.45 173.404 362.303 175.615 362.15 178.122 362.343 180.925 362.882V362.882C183.719 363.419 186.115 364.169 188.112 365.131 190.103 366.083 191.658 367.432 192.78 369.178 193.894 370.923 194.537 373.232 194.709 376.106 194.879 378.988 194.543 382.619 193.701 387V387C192.858 391.388 191.825 394.877 190.602 397.467 189.38 400.057 187.93 401.948 186.252 403.139 184.567 404.322 182.626 404.978 180.427 405.109 178.221 405.238 175.72 405.035 172.925 404.497ZM174.338 397.149V397.149C175.994 397.468 177.411 397.549 178.589 397.393 179.759 397.235 180.757 396.747 181.581 395.929 182.413 395.12 183.142 393.868 183.769 392.173 184.403 390.48 184.99 388.232 185.529 385.429V385.429C186.095 382.485 186.398 380.101 186.44 378.278 186.49 376.448 186.279 375.003 185.807 373.943 185.345 372.878 184.596 372.074 183.56 371.533 182.516 370.991 181.166 370.56 179.51 370.242V370.242C177.924 369.937 176.546 369.843 175.376 369.96 174.206 370.077 173.188 370.541 172.324 371.352 171.47 372.156 170.715 373.415 170.06 375.129 169.406 376.835 168.796 379.16 168.23 382.104V382.104C167.692 384.906 167.392 387.209 167.33 389.013 167.268 390.816 167.481 392.249 167.969 393.312 168.447 394.381 169.212 395.207 170.264 395.792 171.315 396.377 172.673 396.829 174.338 397.149ZM207.581 407.099L199.252 407.386 198.147 375.268C198.084 373.43 198.315 371.883 198.839 370.625 199.356 369.375 200.07 368.375 200.98 367.624 201.898 366.88 202.915 366.341 204.032 366.007 205.14 365.665 206.237 365.475 207.324 365.438V365.438C208.674 365.391 210.352 365.345 212.358 365.3 214.372 365.247 216.512 365.238 218.776 365.272 221.049 365.305 223.24 365.398 225.349 365.549V365.549L225.589 372.524 209.902 373.064C208.735 373.104 207.875 373.446 207.321 374.089 206.759 374.724 206.496 375.549 206.531 376.563V376.563L206.774 383.646 223.268 383.535 223.494 390.114 207.031 391.124ZM258.415 398.06L250.573 400.881 236.479 361.693 244.321 358.872 250.189 375.188 264.959 369.876 259.091 353.56 266.978 350.723 281.073 389.911 273.186 392.748 267.492 376.917 252.722 382.229ZM295.315 380.714L288.284 385.578 275.327 343.901 283.975 337.917 318.41 364.735 311.28 369.668 304.15 364 292.485 372.071ZM283.644 346.837L289.838 364.789 298.259 358.962ZM329.821 352.71L324.184 358.914 293.364 330.905 297.864 325.953 329.92 331.509 309.598 313.041 315.203 306.874 346.023 334.882 341.515 339.843 309.499 334.242ZM359.635 310.22L351.325 325.752 314.605 306.107 322.914 290.575C324.241 288.094 325.789 286.261 327.556 285.076 329.316 283.887 331.274 283.243 333.43 283.145 335.593 283.051 337.906 283.405 340.37 284.206 342.829 285.014 345.416 286.144 348.13 287.596V287.596C352.261 289.806 355.43 292.109 357.639 294.506 359.851 296.895 361.121 299.392 361.45 301.998 361.782 304.597 361.177 307.337 359.635 310.22ZM325.134 302.288L348.659 314.874 352.641 307.431C353.456 305.908 353.66 304.467 353.254 303.108 352.859 301.745 351.895 300.386 350.362 299.031 348.833 297.687 346.778 296.325 344.199 294.945V294.945C341.816 293.67 339.783 292.75 338.1 292.185 336.42 291.631 335.014 291.378 333.883 291.425 332.748 291.479 331.807 291.806 331.061 292.404 330.311 293.009 329.663 293.823 329.116 294.845V294.845ZM372.81 276.263V276.263C372.525 277.312 372.205 278.381 371.851 279.469 371.497 280.558 371.103 281.656 370.67 282.764 370.228 283.87 369.788 284.91 369.349 285.884 368.912 286.851 368.473 287.721 368.03 288.496V288.496L361.678 286.769C362.081 285.711 362.505 284.504 362.947 283.15 363.4 281.79 363.843 280.374 364.276 278.901 364.718 277.43 365.121 276.024 365.486 274.682V274.682C365.859 273.309 366.061 272.092 366.093 271.032 366.132 269.974 365.929 269.09 365.484 268.381 365.029 267.677 364.277 267.183 363.227 266.898V266.898L361.758 266.498C360.562 266.173 359.553 266.276 358.729 266.806 357.904 267.343 357.314 268.264 356.959 269.568V269.568L356.031 272.981C354.987 276.823 353.346 279.537 351.109 281.125 348.871 282.712 345.724 282.954 341.666 281.851V281.851L339.71 281.319C335.799 280.256 333.246 278.356 332.051 275.621 330.849 272.883 330.813 269.435 331.943 265.277V265.277C332.348 263.788 332.823 262.331 333.368 260.905 333.913 259.479 334.466 258.114 335.028 256.809 335.598 255.505 336.124 254.393 336.606 253.472V253.472L342.959 255.199C342.398 256.836 341.786 258.662 341.122 260.677 340.458 262.692 339.889 264.571 339.415 266.314V266.314C339.082 267.541 338.904 268.669 338.881 269.698 338.852 270.718 339.096 271.571 339.614 272.259 340.125 272.936 340.979 273.437 342.175 273.763V273.763L343.262 274.058C344.674 274.442 345.797 274.32 346.63 273.694 347.455 273.065 348.08 271.971 348.503 270.413V270.413L349.579 266.456C350.24 264.026 351.227 262.144 352.542 260.812 353.857 259.479 355.4 258.635 357.17 258.28 358.94 257.924 360.82 258.017 362.811 258.558V258.558L365.09 259.178C368.245 260.036 370.492 261.28 371.829 262.911 373.177 264.537 373.868 266.473 373.904 268.719 373.932 270.963 373.567 273.478 372.81 276.263ZM28.863 209.243C28.863 200.374 36.053 193.185 44.921 193.185 53.79 193.185 60.979 200.374 60.979 209.243 60.979 218.111 53.79 225.3 44.921 225.3 36.053 225.3 28.863 218.111 28.863 209.243ZM349.173 209.243C349.173 200.374 356.362 193.185 365.231 193.185 374.099 193.185 381.288 200.374 381.288 209.243 381.288 218.111 374.099 225.3 365.231 225.3 356.362 225.3 349.173 218.111 349.173 209.243Z" fill="#ffffff" data-fill-palette-color="accent"></path></svg></g></svg></g></svg></g><defs></defs></svg><rect width="395.52" height="206.04007848966057" fill="none" stroke="none" visibility="hidden"></rect></g></svg></g></svg>