<svg xmlns="http://www.w3.org/2000/svg" version="1.1" xmlns:xlink="http://www.w3.org/1999/xlink" xmlns:svgjs="http://svgjs.dev/svgjs" width="1000" height="487" viewBox="0 0 1000 487"><g transform="matrix(1,0,0,1,-0.6060606060606233,0.06003066679022595)"><svg viewBox="0 0 396 193" data-background-color="#ffffff" preserveAspectRatio="xMidYMid meet" height="487" width="1000" xmlns="http://www.w3.org/2000/svg" xmlns:xlink="http://www.w3.org/1999/xlink"><g id="tight-bounds" transform="matrix(1,0,0,1,0.2400000000000091,-0.02379038745485218)"><svg viewBox="0 0 395.52 193.0475807749097" height="193.0475807749097" width="395.52"><g><svg viewBox="0 0 395.52 193.0475807749097" height="193.0475807749097" width="395.52"><g transform="matrix(1,0,0,1,0,155.98142520552577)"><svg viewBox="0 0 395.52 37.06615556938394" height="37.06615556938394" width="395.52"><g><svg viewBox="0 0 395.52 37.06615556938394" height="37.06615556938394" width="395.52"><g><svg viewBox="0 0 395.52 37.06615556938394" height="37.06615556938394" width="395.52"><g transform="matrix(1,0,0,1,0,0)"><svg width="395.52" viewBox="2.3 -37.35 401.71999999999997 37.65" height="37.06615556938394" data-palette-color="#f5ba41"><path d="M14.35 0.3L14.35 0.3Q12.9 0.3 11.38 0.23 9.85 0.15 8.28-0.03 6.7-0.2 5.3-0.43 3.9-0.65 2.75-0.95L2.75-0.95 2.75-6.8Q4.25-6.65 6.15-6.55 8.05-6.45 10.1-6.4 12.15-6.35 14-6.35L14-6.35Q15.9-6.35 17.28-6.68 18.65-7 19.4-7.83 20.15-8.65 20.15-10.1L20.15-10.1 20.15-11.45Q20.15-13.1 19.18-13.98 18.2-14.85 16.4-14.85L16.4-14.85 13.25-14.85Q7.95-14.85 5.13-17.18 2.3-19.5 2.3-25.1L2.3-25.1 2.3-26.9Q2.3-32.3 5.4-34.8 8.5-37.3 14.25-37.3L14.25-37.3Q16.3-37.3 18.32-37.1 20.35-36.9 22.23-36.63 24.1-36.35 25.45-36.05L25.45-36.05 25.45-30.2Q23.15-30.35 20.33-30.5 17.5-30.65 15.1-30.65L15.1-30.65Q13.4-30.65 12.08-30.33 10.75-30 10.05-29.1 9.35-28.2 9.35-26.55L9.35-26.55 9.35-25.55Q9.35-23.6 10.45-22.75 11.55-21.9 13.7-21.9L13.7-21.9 17.35-21.9Q20.7-21.9 22.88-20.68 25.05-19.45 26.13-17.3 27.2-15.15 27.2-12.4L27.2-12.4 27.2-10.3Q27.2-5.95 25.58-3.65 23.95-1.35 21.08-0.53 18.2 0.3 14.35 0.3ZM40.05 0L32.65 0 32.65-37 40.05-37 40.05-21.6 54-21.6 54-37 61.45-37 61.45 0 54 0 54-14.95 40.05-14.95 40.05 0ZM82.09 0.3L82.09 0.3Q78.3 0.3 75.44-0.43 72.59-1.15 70.67-3.13 68.75-5.1 67.8-8.8 66.84-12.5 66.84-18.45L66.84-18.45Q66.84-24.4 67.82-28.13 68.8-31.85 70.69-33.85 72.59-35.85 75.44-36.6 78.3-37.35 82.09-37.35L82.09-37.35Q85.89-37.35 88.75-36.6 91.59-35.85 93.5-33.85 95.39-31.85 96.34-28.13 97.3-24.4 97.3-18.45L97.3-18.45Q97.3-12.5 96.34-8.8 95.39-5.1 93.5-3.13 91.59-1.15 88.75-0.43 85.89 0.3 82.09 0.3ZM82.09-6.35L82.09-6.35Q84.34-6.35 85.84-6.85 87.34-7.35 88.22-8.63 89.09-9.9 89.5-12.28 89.89-14.65 89.89-18.45L89.89-18.45Q89.89-22.45 89.5-24.85 89.09-27.25 88.22-28.53 87.34-29.8 85.84-30.25 84.34-30.7 82.09-30.7L82.09-30.7Q79.94-30.7 78.44-30.25 76.94-29.8 76.02-28.53 75.09-27.25 74.67-24.85 74.25-22.45 74.25-18.45L74.25-18.45Q74.25-14.65 74.62-12.28 75-9.9 75.89-8.63 76.8-7.35 78.32-6.85 79.84-6.35 82.09-6.35ZM116.04 0L108.49 0 99.64-37 107.29-37 113.24-10.9 120.19-37 126.99-37 133.89-10.9 139.84-37 147.49-37 138.64 0 131.09 0 123.59-26.1 116.04 0ZM178.74 0.3L178.74 0.3Q174.94 0.3 172.09-0.43 169.24-1.15 167.31-3.13 165.39-5.1 164.44-8.8 163.49-12.5 163.49-18.45L163.49-18.45Q163.49-24.4 164.46-28.13 165.44-31.85 167.34-33.85 169.24-35.85 172.09-36.6 174.94-37.35 178.74-37.35L178.74-37.35Q182.54-37.35 185.39-36.6 188.24-35.85 190.14-33.85 192.04-31.85 192.99-28.13 193.94-24.4 193.94-18.45L193.94-18.45Q193.94-12.5 192.99-8.8 192.04-5.1 190.14-3.13 188.24-1.15 185.39-0.43 182.54 0.3 178.74 0.3ZM178.74-6.35L178.74-6.35Q180.99-6.35 182.49-6.85 183.99-7.35 184.86-8.63 185.74-9.9 186.14-12.28 186.54-14.65 186.54-18.45L186.54-18.45Q186.54-22.45 186.14-24.85 185.74-27.25 184.86-28.53 183.99-29.8 182.49-30.25 180.99-30.7 178.74-30.7L178.74-30.7Q176.59-30.7 175.09-30.25 173.59-29.8 172.66-28.53 171.74-27.25 171.31-24.85 170.89-22.45 170.89-18.45L170.89-18.45Q170.89-14.65 171.26-12.28 171.64-9.9 172.54-8.63 173.44-7.35 174.96-6.85 176.49-6.35 178.74-6.35ZM206.78 0L199.38 0 199.38-28.55Q199.38-31 200.13-32.65 200.88-34.3 202.13-35.25 203.38-36.2 204.88-36.6 206.38-37 207.84-37L207.84-37Q209.63-37 212.31-36.98 214.99-36.95 218.01-36.8 221.03-36.65 223.84-36.35L223.84-36.35 223.84-30.15 209.88-30.15Q208.34-30.15 207.56-29.33 206.78-28.5 206.78-27.15L206.78-27.15 206.78-20.85 221.44-20.45 221.44-14.6 206.78-14.2 206.78 0ZM248.83 0L241.43 0 241.43-37 248.83-37 248.83-21.6 262.78-21.6 262.78-37 270.23-37 270.23 0 262.78 0 262.78-14.95 248.83-14.95 248.83 0ZM281.83 0L274.23 0 285.83-37 295.18-37 306.78 0 299.08 0 296.73-7.75 284.13-7.75 281.83 0ZM290.43-30.65L285.88-14.4 294.98-14.4 290.43-30.65ZM318.52 0L311.07 0 311.07-37 317.02-37 332.52-12.6 332.52-37 339.93-37 339.93 0 333.98 0 318.52-24.4 318.52 0ZM361.67 0L346.02 0 346.02-37 361.67-37Q365.42-37 367.92-35.68 370.42-34.35 371.9-31.88 373.37-29.4 373.97-26 374.57-22.6 374.57-18.5L374.57-18.5Q374.57-12.25 373.15-8.15 371.72-4.05 368.87-2.02 366.02 0 361.67 0L361.67 0ZM353.42-30.35L353.42-6.65 360.92-6.65Q363.22-6.65 364.57-7.98 365.92-9.3 366.55-11.95 367.17-14.6 367.17-18.5L367.17-18.5Q367.17-22.1 366.77-24.43 366.37-26.75 365.6-28.05 364.82-29.35 363.65-29.85 362.47-30.35 360.92-30.35L360.92-30.35 353.42-30.35ZM391.17 0.3L391.17 0.3Q389.72 0.3 388.19 0.23 386.67 0.15 385.09-0.03 383.52-0.2 382.12-0.43 380.72-0.65 379.57-0.95L379.57-0.95 379.57-6.8Q381.07-6.65 382.97-6.55 384.87-6.45 386.92-6.4 388.97-6.35 390.82-6.35L390.82-6.35Q392.72-6.35 394.09-6.68 395.47-7 396.22-7.83 396.97-8.65 396.97-10.1L396.97-10.1 396.97-11.45Q396.97-13.1 396-13.98 395.02-14.85 393.22-14.85L393.22-14.85 390.07-14.85Q384.77-14.85 381.94-17.18 379.12-19.5 379.12-25.1L379.12-25.1 379.12-26.9Q379.12-32.3 382.22-34.8 385.32-37.3 391.07-37.3L391.07-37.3Q393.12-37.3 395.14-37.1 397.17-36.9 399.05-36.63 400.92-36.35 402.27-36.05L402.27-36.05 402.27-30.2Q399.97-30.35 397.14-30.5 394.32-30.65 391.92-30.65L391.92-30.65Q390.22-30.65 388.89-30.33 387.57-30 386.87-29.1 386.17-28.2 386.17-26.55L386.17-26.55 386.17-25.55Q386.17-23.6 387.27-22.75 388.37-21.9 390.52-21.9L390.52-21.9 394.17-21.9Q397.52-21.9 399.69-20.68 401.87-19.45 402.94-17.3 404.02-15.15 404.02-12.4L404.02-12.4 404.02-10.3Q404.02-5.95 402.39-3.65 400.77-1.35 397.89-0.53 395.02 0.3 391.17 0.3Z" opacity="1" transform="matrix(1,0,0,1,0,0)" fill="#f5ba41" class="undefined-text-0" data-fill-palette-color="primary" id="text-0"></path></svg></g></svg></g></svg></g></svg></g><g transform="matrix(1,0,0,1,75.54432,0)"><svg viewBox="0 0 244.43135999999998 134.10535085003107" height="134.10535085003107" width="244.43135999999998"><g><svg viewBox="0 0 244.43135999999998 134.10535085003107" height="134.10535085003107" width="244.43135999999998"><g transform="matrix(1,0,0,1,98.58508803729586,35.4437410985295)"><svg viewBox="0 0 47.26118392540826 63.21786865297208" height="63.21786865297208" width="47.26118392540826"><g><svg xmlns="http://www.w3.org/2000/svg" xmlns:xlink="http://www.w3.org/1999/xlink" version="1.1" x="0" y="0" viewBox="12.809000000000001 0.018377230416422845 74.4643800059734 99.60561720104985" enable-background="new 0 0 100 100" xml:space="preserve" height="63.21786865297208" width="47.26118392540826" class="icon-gn-0" data-fill-palette-color="accent" id="gn-0"><path d="M64.9 98.083c0.297-9.978 0.64-17.903 1.018-20.204 1.274-7.743 4.507-12.247 5.488-21.749 0.977-9.501 2.741-11.458 5.384-16.748 2.646-5.29 10.385-10.48 10.483-14.301 0.035-1.469-2.352-2.645-5.39 0-3.035 2.643-13.419 15.182-14.888 13.32-1.469-1.858 2.742-10.872 4.802-18.708 2.057-7.838 3.33-13.322 0.193-14.105-3.135-0.784-4.995 4.801-8.227 17.042-3.232 12.245-3.724 12.245-5.389 11.167-1.665-1.076-0.02-18.739-0.02-18.739 0.244-7.139 1.229-15.51-2.707-15.019-3.942 0.493-5.171 10.095-5.171 15.512 0 5.418 0.392 16.884-1.332 16.884-1.725 0-3.101-2.851-4.331-14.915C43.583 5.457 42.352 5.446 41.121 5.457c-1.879 0.017-3.938 1.97-3.938 8.864 0 6.893 2.708 18.712 2.954 26.345 0.248 7.632-2.461 11.571-5.908 12.064-3.448 0.493-7.88-5.665-14.034-8.126-6.156-2.461-7.386 4.924-7.386 4.924s4.677 0.985 7.632 3.449c2.956 2.46 6.155 9.108 6.155 9.108 3.202 2.953 15.512 13.049 15.512 13.049s0.492 11.08-0.248 20.432c-0.074 0.942-0.206 2.068-0.366 3.282C50.533 99.442 57.666 100.568 64.9 98.083z" fill="#ffb20f" data-fill-palette-color="accent"></path></svg></g></svg></g><path d="M67.793 49.8V49.8C67.706 50.065 67.61 50.335 67.506 50.608 67.396 50.88 67.277 51.156 67.15 51.437 67.023 51.717 66.899 51.977 66.778 52.217 66.649 52.462 66.522 52.679 66.396 52.869V52.869L64.795 52.343C64.909 52.08 65.033 51.777 65.166 51.436 65.299 51.095 65.431 50.735 65.562 50.358 65.697 49.99 65.82 49.635 65.933 49.294V49.294C66.047 48.946 66.114 48.636 66.133 48.362 66.16 48.091 66.12 47.861 66.014 47.672 65.906 47.489 65.719 47.355 65.453 47.267V47.267L65.084 47.146C64.781 47.047 64.521 47.059 64.305 47.184 64.082 47.307 63.917 47.533 63.809 47.862V47.862L63.523 48.734C63.206 49.7 62.75 50.373 62.157 50.752 61.563 51.131 60.752 51.152 59.722 50.814V50.814L59.229 50.652C58.237 50.326 57.607 49.804 57.339 49.086 57.062 48.372 57.097 47.488 57.443 46.433V46.433C57.568 46.054 57.709 45.687 57.868 45.333 58.028 44.973 58.189 44.63 58.352 44.306 58.517 43.975 58.668 43.695 58.806 43.468V43.468L60.407 43.994C60.243 44.409 60.063 44.871 59.868 45.381 59.666 45.889 59.494 46.36 59.35 46.796V46.796C59.249 47.106 59.189 47.394 59.171 47.662 59.149 47.92 59.199 48.143 59.319 48.33 59.442 48.51 59.655 48.65 59.959 48.749V48.749L60.233 48.84C60.594 48.958 60.883 48.941 61.101 48.789 61.325 48.638 61.501 48.367 61.63 47.975V47.975L61.96 46.971C62.161 46.358 62.441 45.89 62.799 45.566 63.151 45.241 63.556 45.042 64.014 44.968 64.477 44.903 64.957 44.952 65.456 45.116V45.116L66.035 45.306C66.831 45.567 67.392 45.916 67.717 46.352 68.041 46.794 68.193 47.303 68.172 47.877 68.152 48.451 68.025 49.092 67.793 49.8ZM71.869 40.418L70.801 42.266 61.533 36.91 62.601 35.062 66.462 37.293 68.484 33.795 64.623 31.564 65.701 29.698 74.968 35.054 73.89 36.92 70.15 34.758 68.129 38.256ZM80.752 28.532V28.532C80.252 29.066 79.765 29.485 79.291 29.787 78.812 30.095 78.304 30.253 77.768 30.261 77.237 30.274 76.65 30.103 76.008 29.748 75.361 29.398 74.617 28.829 73.777 28.043V28.043C72.942 27.262 72.326 26.553 71.928 25.917 71.531 25.29 71.317 24.711 71.285 24.181 71.258 23.655 71.38 23.14 71.65 22.637 71.916 22.139 72.299 21.623 72.799 21.089V21.089C73.303 20.55 73.795 20.131 74.275 19.833 74.759 19.53 75.264 19.374 75.791 19.366 76.322 19.363 76.914 19.538 77.565 19.893 78.217 20.257 78.961 20.83 79.796 21.612V21.612C80.636 22.398 81.255 23.1 81.651 23.717 82.044 24.339 82.253 24.913 82.28 25.44 82.312 25.97 82.19 26.485 81.915 26.983 81.644 27.477 81.257 27.993 80.752 28.532ZM79.347 27.216V27.216C79.647 26.896 79.858 26.597 79.98 26.32 80.112 26.043 80.145 25.76 80.079 25.47 80.013 25.181 79.84 24.85 79.559 24.478 79.279 24.106 78.872 23.67 78.337 23.171V23.171C77.774 22.643 77.295 22.25 76.901 21.99 76.511 21.735 76.17 21.584 75.877 21.537 75.583 21.49 75.305 21.544 75.042 21.699 74.784 21.849 74.504 22.084 74.205 22.404V22.404C73.923 22.705 73.716 22.99 73.583 23.258 73.447 23.53 73.407 23.816 73.464 24.115 73.521 24.415 73.689 24.75 73.97 25.122 74.255 25.498 74.68 25.95 75.243 26.477V26.477C75.777 26.977 76.237 27.357 76.622 27.617 77.007 27.877 77.348 28.028 77.646 28.07 77.944 28.112 78.226 28.058 78.494 27.908 78.767 27.763 79.051 27.532 79.347 27.216ZM90.288 20.664L88.434 21.82 80.604 14.088 82.475 12.921 87.934 18.417 85.649 10.942 87.317 9.903 93.005 15.255 90.466 7.94 92.345 6.768 95.832 17.207 93.987 18.358 88.147 13.1ZM112.222 11.708V11.708C111.503 11.843 110.863 11.893 110.301 11.857 109.733 11.822 109.23 11.649 108.793 11.339 108.356 11.035 107.984 10.551 107.676 9.885 107.361 9.22 107.097 8.322 106.884 7.192V7.192C106.672 6.067 106.594 5.131 106.649 4.383 106.699 3.643 106.868 3.05 107.156 2.603 107.446 2.163 107.848 1.819 108.363 1.573 108.872 1.329 109.486 1.139 110.205 1.003V1.003C110.93 0.866 111.574 0.819 112.137 0.862 112.707 0.904 113.206 1.077 113.636 1.382 114.067 1.693 114.44 2.184 114.756 2.856 115.067 3.535 115.328 4.436 115.54 5.56V5.56C115.753 6.691 115.837 7.622 115.793 8.355 115.742 9.089 115.571 9.676 115.282 10.116 114.994 10.563 114.592 10.906 114.075 11.145 113.565 11.384 112.948 11.571 112.222 11.708ZM111.866 9.816V9.816C112.297 9.735 112.644 9.618 112.906 9.467 113.177 9.322 113.371 9.113 113.489 8.84 113.606 8.567 113.662 8.198 113.655 7.733 113.649 7.267 113.578 6.675 113.442 5.956V5.956C113.299 5.198 113.146 4.597 112.981 4.154 112.818 3.718 112.632 3.395 112.423 3.184 112.214 2.973 111.957 2.852 111.654 2.821 111.357 2.789 110.993 2.814 110.561 2.895V2.895C110.156 2.971 109.821 3.078 109.556 3.216 109.284 3.356 109.083 3.563 108.952 3.838 108.821 4.113 108.759 4.483 108.766 4.949 108.774 5.421 108.849 6.036 108.992 6.794V6.794C109.127 7.513 109.273 8.091 109.43 8.529 109.587 8.966 109.773 9.29 109.989 9.5 110.204 9.709 110.465 9.833 110.769 9.87 111.075 9.914 111.441 9.896 111.866 9.816ZM123.069 10.694L120.935 10.645 121.125 2.388C121.136 1.916 121.218 1.522 121.372 1.206 121.519 0.89 121.717 0.645 121.967 0.472 122.211 0.291 122.477 0.167 122.764 0.101 123.059 0.028 123.345-0.006 123.625 0.001V0.001C123.97 0.009 124.402 0.022 124.921 0.041 125.433 0.059 125.981 0.088 126.565 0.128 127.15 0.168 127.711 0.225 128.248 0.297V0.297L128.206 2.092 124.167 1.999C123.868 1.992 123.644 2.067 123.494 2.223 123.337 2.379 123.256 2.587 123.25 2.846V2.846L123.208 4.661 127.444 4.878 127.405 6.573 123.164 6.586ZM140.872 13.827L138.866 13.096 142.531 3.04 144.537 3.77 143.01 7.96 146.806 9.343 148.332 5.154 150.357 5.892 146.692 15.948 144.667 15.21 146.146 11.152 142.351 9.769ZM151.957 19.01L150.124 17.802 158.811 10.708 161.069 12.195 157.98 22.977 156.122 21.753 156.79 19.506 153.749 17.503ZM158.909 12.97L155.225 16.17 157.424 17.618ZM162.528 27.209L161.019 25.672 168.655 18.172 169.864 19.403 167.964 27.547 173.003 22.598 174.505 24.128 166.869 31.629 165.66 30.398 167.56 22.267ZM171.87 39.187L169.493 35.332 178.604 29.714 180.981 33.569C181.358 34.181 181.563 34.761 181.597 35.31 181.634 35.851 181.523 36.368 181.265 36.863 181.008 37.357 180.631 37.824 180.136 38.262 179.638 38.71 179.053 39.141 178.379 39.556V39.556C177.355 40.188 176.432 40.593 175.612 40.77 174.795 40.954 174.078 40.912 173.46 40.644 172.84 40.386 172.31 39.9 171.87 39.187ZM178.086 32.542L172.252 36.139 173.394 37.99C173.627 38.369 173.92 38.603 174.271 38.691 174.628 38.775 175.053 38.736 175.546 38.573 176.045 38.406 176.614 38.125 177.254 37.731V37.731C177.848 37.364 178.314 37.03 178.651 36.728 178.998 36.429 179.236 36.149 179.365 35.89 179.503 35.633 179.555 35.382 179.522 35.137 179.482 34.896 179.384 34.648 179.227 34.393V34.393ZM176.531 49.487V49.487C176.437 49.224 176.348 48.953 176.262 48.673 176.182 48.39 176.107 48.099 176.036 47.8 175.964 47.501 175.903 47.219 175.851 46.955 175.804 46.683 175.771 46.433 175.754 46.206V46.206L177.342 45.64C177.413 45.919 177.5 46.234 177.604 46.585 177.708 46.936 177.824 47.301 177.952 47.679 178.071 48.053 178.191 48.409 178.311 48.747V48.747C178.434 49.092 178.571 49.378 178.723 49.607 178.869 49.837 179.041 49.994 179.241 50.079 179.438 50.157 179.668 50.149 179.931 50.055V50.055L180.298 49.925C180.598 49.818 180.796 49.648 180.89 49.417 180.99 49.184 180.983 48.904 180.866 48.578V48.578L180.559 47.714C180.217 46.755 180.165 45.944 180.402 45.281 180.638 44.618 181.267 44.105 182.288 43.741V43.741L182.777 43.567C183.761 43.216 184.578 43.243 185.23 43.646 185.886 44.041 186.4 44.761 186.773 45.807V45.807C186.907 46.183 187.02 46.559 187.112 46.936 187.206 47.319 187.288 47.689 187.358 48.045 187.431 48.407 187.483 48.721 187.513 48.985V48.985L185.925 49.551C185.801 49.122 185.66 48.647 185.502 48.124 185.35 47.599 185.197 47.12 185.043 46.688V46.688C184.934 46.381 184.804 46.117 184.655 45.895 184.513 45.677 184.338 45.531 184.128 45.457 183.921 45.39 183.667 45.41 183.366 45.517V45.517L183.093 45.614C182.736 45.742 182.518 45.932 182.439 46.186 182.354 46.442 182.381 46.765 182.519 47.153V47.153L182.874 48.149C183.09 48.757 183.156 49.298 183.071 49.773 182.992 50.246 182.795 50.652 182.478 50.991 182.152 51.325 181.742 51.581 181.247 51.757V51.757L180.674 51.962C179.884 52.243 179.227 52.311 178.703 52.166 178.176 52.015 177.745 51.706 177.409 51.239 177.074 50.773 176.781 50.189 176.531 49.487ZM60.224 89.681V89.681C60.137 89.416 60.053 89.139 59.972 88.85 59.897 88.56 59.828 88.264 59.764 87.963 59.7 87.662 59.644 87.376 59.597 87.104 59.556 86.831 59.529 86.577 59.515 86.344V86.344L61.135 85.811C61.201 86.097 61.283 86.42 61.38 86.78 61.478 87.14 61.583 87.512 61.695 87.895 61.813 88.276 61.928 88.637 62.041 88.978V88.978C62.155 89.326 62.283 89.62 62.425 89.86 62.572 90.092 62.743 90.252 62.941 90.341 63.138 90.431 63.373 90.43 63.644 90.341V90.341L64.014 90.219C64.317 90.12 64.521 89.951 64.625 89.714 64.731 89.483 64.729 89.2 64.618 88.865V88.865L64.332 87.994C64.009 87.014 63.977 86.192 64.234 85.526 64.491 84.861 65.138 84.357 66.174 84.017V84.017L66.666 83.854C67.664 83.526 68.492 83.572 69.148 83.994 69.799 84.417 70.298 85.159 70.648 86.22V86.22C70.772 86.599 70.877 86.981 70.962 87.366 71.048 87.758 71.124 88.136 71.188 88.5 71.249 88.858 71.293 89.172 71.319 89.444V89.444L69.699 89.977C69.585 89.545 69.458 89.062 69.317 88.527 69.17 87.995 69.023 87.507 68.878 87.065V87.065C68.774 86.749 68.653 86.477 68.515 86.25 68.373 86.03 68.198 85.881 67.99 85.803 67.778 85.733 67.52 85.747 67.217 85.847V85.847L66.942 85.938C66.582 86.056 66.356 86.242 66.265 86.496 66.173 86.751 66.193 87.077 66.324 87.475V87.475L66.658 88.488C66.861 89.108 66.916 89.657 66.822 90.136 66.725 90.609 66.511 91.012 66.18 91.345 65.846 91.671 65.427 91.918 64.921 92.084V92.084L64.334 92.277C63.531 92.541 62.87 92.595 62.349 92.437 61.826 92.273 61.398 91.952 61.066 91.473 60.739 90.992 60.459 90.395 60.224 89.681ZM65.124 100.453L64.046 98.588 73.397 93.179 74.476 95.044 70.582 97.296 72.625 100.828 76.519 98.575 77.608 100.458 68.256 105.867 67.167 103.985 70.949 101.797 68.906 98.265ZM74.956 113.903V113.903C74.451 113.364 74.061 112.845 73.786 112.347 73.51 111.839 73.384 111.32 73.406 110.789 73.428 110.249 73.643 109.665 74.049 109.039 74.446 108.412 75.066 107.703 75.911 106.912V106.912C76.755 106.12 77.506 105.545 78.162 105.185 78.823 104.831 79.424 104.655 79.965 104.658 80.496 104.662 81.006 104.817 81.495 105.125 81.979 105.428 82.474 105.848 82.978 106.387V106.387C83.483 106.926 83.873 107.449 84.148 107.957 84.419 108.46 84.54 108.979 84.514 109.514 84.482 110.054 84.263 110.638 83.857 111.264 83.455 111.896 82.832 112.607 81.987 113.398V113.398C81.143 114.189 80.395 114.762 79.743 115.117 79.092 115.482 78.498 115.66 77.962 115.652 77.43 115.639 76.923 115.482 76.438 115.179 75.955 114.867 75.46 114.441 74.956 113.903ZM76.375 112.573V112.573C76.675 112.893 76.962 113.126 77.235 113.271 77.503 113.421 77.786 113.475 78.083 113.433 78.381 113.382 78.725 113.228 79.115 112.973 79.509 112.713 79.975 112.33 80.514 111.826V111.826C81.082 111.294 81.509 110.839 81.794 110.463 82.084 110.082 82.262 109.747 82.328 109.457 82.389 109.163 82.351 108.879 82.214 108.606 82.082 108.329 81.866 108.03 81.566 107.71V107.71C81.28 107.404 81.002 107.177 80.734 107.027 80.471 106.872 80.188 106.814 79.886 106.851 79.584 106.888 79.233 107.039 78.834 107.303 78.435 107.559 77.952 107.952 77.384 108.484V108.484C76.845 108.989 76.431 109.427 76.141 109.799 75.856 110.166 75.683 110.501 75.621 110.805 75.56 111.099 75.598 111.388 75.734 111.67 75.862 111.951 76.075 112.252 76.375 112.573ZM86.201 122.928L84.329 121.763 87.842 111.225 89.74 112.406 87.188 119.794 92.933 114.392 94.618 115.441 92.303 122.977 97.812 117.428 99.7 118.603 91.8 126.411 89.928 125.246 92.099 117.621ZM110.772 133.09V133.09C110.047 132.953 109.426 132.765 108.909 132.526 108.387 132.279 107.978 131.935 107.682 131.493 107.381 131.044 107.209 130.447 107.167 129.701 107.117 128.961 107.198 128.022 107.412 126.885V126.885C107.626 125.748 107.892 124.84 108.209 124.162 108.533 123.486 108.914 122.989 109.352 122.672 109.783 122.361 110.286 122.185 110.862 122.144 111.432 122.103 112.079 122.15 112.805 122.286V122.286C113.53 122.423 114.154 122.615 114.676 122.862 115.191 123.108 115.596 123.455 115.891 123.903 116.184 124.357 116.352 124.957 116.395 125.703 116.444 126.449 116.361 127.391 116.147 128.529V128.529C115.933 129.666 115.668 130.57 115.353 131.242 115.042 131.921 114.668 132.415 114.231 132.726 113.795 133.029 113.292 133.202 112.722 133.244 112.148 133.278 111.497 133.226 110.772 133.09ZM111.132 131.178V131.178C111.563 131.259 111.932 131.278 112.238 131.234 112.543 131.197 112.803 131.073 113.018 130.863 113.228 130.646 113.415 130.319 113.578 129.882 113.743 129.44 113.893 128.856 114.03 128.13V128.13C114.174 127.365 114.249 126.747 114.257 126.275 114.266 125.796 114.211 125.42 114.094 125.148 113.969 124.874 113.771 124.668 113.5 124.528 113.229 124.383 112.878 124.269 112.447 124.188V124.188C112.035 124.111 111.677 124.091 111.372 124.128 111.069 124.159 110.806 124.279 110.584 124.487 110.362 124.696 110.168 125.025 110.002 125.474 109.831 125.916 109.674 126.519 109.53 127.283V127.283C109.393 128.009 109.318 128.607 109.304 129.078 109.291 129.543 109.349 129.916 109.479 130.197 109.603 130.471 109.804 130.681 110.081 130.828 110.35 130.98 110.7 131.097 111.132 131.178ZM123.259 134.055L121.105 134.105 120.912 125.768C120.901 125.296 120.965 124.895 121.104 124.566 121.242 124.244 121.429 123.987 121.664 123.795 121.906 123.603 122.172 123.467 122.463 123.387 122.754 123.301 123.039 123.254 123.318 123.248V123.248C123.671 123.24 124.106 123.233 124.625 123.227 125.143 123.215 125.699 123.219 126.291 123.239 126.877 123.252 127.443 123.282 127.99 123.329V123.329L128.032 125.144 123.963 125.238C123.664 125.245 123.44 125.33 123.29 125.493 123.141 125.657 123.07 125.868 123.076 126.127V126.127L123.118 127.972 127.399 127.983 127.439 129.698 123.163 129.907ZM143.482 130.474L141.457 131.21 137.766 121.056 139.791 120.32 141.328 124.548 145.163 123.155 143.626 118.926 145.67 118.183 149.361 128.337 147.317 129.08 145.824 124.973 141.99 126.367ZM156.188 124.491L154.338 125.708 151.226 114.824 153.509 113.322 162.28 120.484 160.397 121.723 158.577 120.209 155.51 122.227ZM153.371 115.634L154.872 120.33 157.089 118.872ZM168.051 115.25L166.526 116.8 158.825 109.223 160.042 107.985 168.296 109.753 163.219 104.757 164.73 103.221 172.431 110.798 171.213 112.036 162.974 110.254ZM178.492 101.889L176.091 105.776 166.9 100.099 169.3 96.212C169.685 95.59 170.115 95.14 170.591 94.863 171.066 94.587 171.583 94.452 172.141 94.461 172.698 94.469 173.292 94.597 173.92 94.845 174.54 95.094 175.189 95.429 175.868 95.848V95.848C176.904 96.488 177.689 97.133 178.225 97.785 178.757 98.442 179.046 99.113 179.092 99.798 179.136 100.473 178.936 101.171 178.492 101.889ZM169.687 99.288L175.568 102.921 176.722 101.054C176.956 100.675 177.035 100.305 176.96 99.946 176.876 99.589 176.644 99.224 176.266 98.849 175.897 98.473 175.387 98.083 174.736 97.682V97.682C174.142 97.315 173.631 97.046 173.205 96.876 172.778 96.707 172.419 96.618 172.127 96.609 171.831 96.607 171.582 96.675 171.378 96.815 171.177 96.964 170.997 97.166 170.84 97.421V97.421ZM184.034 90.185V90.185C183.94 90.448 183.836 90.718 183.723 90.995 183.604 91.27 183.477 91.546 183.343 91.823 183.209 92.1 183.077 92.36 182.947 92.604 182.812 92.845 182.678 93.062 182.546 93.255V93.255L180.939 92.681C181.063 92.414 181.196 92.109 181.34 91.765 181.484 91.421 181.63 91.063 181.776 90.692 181.917 90.318 182.048 89.963 182.168 89.624V89.624C182.291 89.28 182.37 88.969 182.406 88.692 182.433 88.419 182.395 88.187 182.294 87.996 182.193 87.804 182.008 87.661 181.739 87.564V87.564L181.372 87.434C181.072 87.326 180.808 87.334 180.58 87.458 180.354 87.575 180.182 87.8 180.064 88.132V88.132L179.755 88.996C179.409 89.967 178.93 90.636 178.318 91.004 177.707 91.371 176.887 91.372 175.86 91.005V91.005L175.372 90.831C174.382 90.477 173.757 89.933 173.497 89.197 173.244 88.464 173.305 87.572 173.68 86.519V86.519C173.815 86.144 173.966 85.778 174.136 85.422 174.308 85.059 174.48 84.715 174.653 84.388 174.824 84.068 174.983 83.793 175.128 83.562V83.562L176.735 84.136C176.56 84.546 176.364 85.006 176.147 85.515 175.936 86.026 175.753 86.5 175.596 86.939V86.939C175.484 87.252 175.413 87.541 175.382 87.805 175.36 88.065 175.407 88.29 175.522 88.48 175.647 88.666 175.859 88.812 176.16 88.919V88.919L176.432 89.017C176.789 89.144 177.082 89.136 177.31 88.991 177.538 88.847 177.723 88.577 177.864 88.183V88.183L178.223 87.177C178.442 86.564 178.736 86.097 179.104 85.776 179.471 85.462 179.887 85.275 180.353 85.216 180.817 85.163 181.299 85.226 181.8 85.404V85.404L182.383 85.612C183.178 85.896 183.733 86.261 184.048 86.705 184.36 87.155 184.5 87.671 184.469 88.253 184.432 88.833 184.286 89.477 184.034 90.185ZM56.551 68.475C56.551 66.196 58.399 64.349 60.678 64.349 62.958 64.349 64.805 66.196 64.805 68.475 64.805 70.755 62.958 72.602 60.678 72.602 58.399 72.602 56.551 70.755 56.551 68.475ZM179.626 68.475C179.626 66.196 181.474 64.349 183.753 64.349 186.032 64.349 187.88 66.196 187.88 68.475 187.88 70.755 186.032 72.602 183.753 72.602 181.474 72.602 179.626 70.755 179.626 68.475Z" fill="#ffb20f" data-fill-palette-color="accent"></path></svg></g></svg></g><g></g></svg></g><defs></defs></svg><rect width="395.52" height="193.0475807749097" fill="none" stroke="none" visibility="hidden"></rect></g></svg></g></svg>